<svg width="51" height="37" viewBox="0 0 51 37" fill="none" xmlns="http://www.w3.org/2000/svg">
<path d="M33.4691 16.966C31.0836 16.966 29.1636 19.09 29.1636 21.745C29.1636 24.341 31.0836 26.465 33.4691 26.465C35.9127 26.465 37.8327 24.341 37.8327 21.745C37.8327 19.09 35.9127 16.966 33.4691 16.966ZM18.0509 16.966C15.6654 16.966 13.6873 19.09 13.6873 21.745C13.6873 24.341 15.6654 26.465 18.0509 26.465C20.4364 26.465 22.3564 24.341 22.3564 21.745C22.3564 19.09 20.4364 16.966 18.0509 16.966ZM37.5418 36.554C37.5418 36.554 36.0291 34.666 34.7491 33.073C40.3345 31.48 42.4291 27.94 42.4291 27.94C40.6836 29.12 38.9964 29.946 37.5418 30.477C35.3891 31.362 33.3527 32.011 31.3745 32.365C27.3018 33.132 23.5782 32.955 20.3782 32.365C17.9345 31.893 15.84 31.185 14.1527 30.477C13.1636 30.123 12.1164 29.651 11.0109 29.002C10.8945 28.943 10.7782 28.884 10.6618 28.766C10.5454 28.766 10.4873 28.707 10.4291 28.707C9.67272 28.235 9.26545 27.94 9.26545 27.94C9.26545 27.94 11.3018 31.362 16.7127 33.014C15.4327 34.666 13.8618 36.554 13.8618 36.554C4.49454 36.259 0.94545 30.005 0.94545 30.005C0.94545 16.14 7.05454 4.92998 7.05454 4.92998C13.1636 0.268981 18.9236 0.445981 18.9236 0.445981L19.3891 0.917981C11.7091 3.15998 8.21818 6.58198 8.21818 6.58198C8.21818 6.58198 9.14909 6.05098 10.7782 5.34298C15.3164 3.33698 18.8654 2.80598 20.3782 2.62898C20.6109 2.62898 20.8436 2.56998 21.0764 2.51098C23.6945 2.21598 26.6036 2.09798 29.6873 2.45198C33.7018 2.92398 38.0073 4.16298 42.4291 6.58198C42.4291 6.58198 39.1127 3.33698 31.8982 1.09498L32.48 0.445981C32.48 0.445981 38.24 0.268981 44.3491 4.92998C44.3491 4.92998 50.4582 16.14 50.4582 30.005C50.4582 30.005 46.9091 36.259 37.5418 36.554Z" fill="#E571F6"/>
</svg>
