<svg width="77" height="60" viewBox="0 0 77 60" fill="none" xmlns="http://www.w3.org/2000/svg">
<path d="M12.3466 14.5002V21.167V28.0254C12.3466 28.2224 12.2167 28.445 11.8965 28.6295L11.8895 28.6335L11.8831 28.6383L7.48995 31.9291L7.35092 32.0074L7.34984 32.008C7.07439 32.1665 6.72106 32.2592 6.3507 32.2815V16.7096L12.3466 14.5002Z" fill="url(#paint0_linear_1_210)" stroke="url(#paint1_linear_1_210)" stroke-width="0.267261"/>
<path d="M21.0487 14.7046V20.0791V25.6454C21.0487 25.7932 20.9513 25.9668 20.6963 26.1139L20.6893 26.1179L20.6829 26.1227L17.1224 28.7925L17.0112 28.8553L17.0101 28.8559C16.7974 28.9784 16.5253 29.0521 16.238 29.0728V16.479L21.0487 14.7046Z" fill="url(#paint2_linear_1_210)" stroke="url(#paint3_linear_1_210)" stroke-width="0.267261"/>
<path d="M31.8736 23.3098V29.4431V35.7684C31.8736 35.9454 31.7576 36.1478 31.4659 36.3167L31.4589 36.3207L31.4525 36.3256L27.4227 39.3601L27.2957 39.432L27.2947 39.4326C27.0467 39.5761 26.7289 39.6609 26.3948 39.6826V25.3392L31.8736 23.3098Z" fill="url(#paint4_linear_1_210)" stroke="url(#paint5_linear_1_210)" stroke-width="0.267261"/>
<path d="M-0.866337 28.3361L-0.866369 4.42119L6.0824 7.13896L6.08244 32.2864C5.8784 32.268 5.68676 32.215 5.53693 32.1306L5.53659 32.1304L5.44231 32.0777L5.44184 32.0774L2.41456 30.3674L-0.612944 28.6574C-0.803825 28.549 -0.866337 28.4288 -0.866337 28.3361Z" fill="url(#paint6_linear_1_210)" stroke="url(#paint7_linear_1_210)" stroke-width="0.267261"/>
<path d="M10.3585 25.8779L10.3585 6.42346L15.971 8.61909L15.971 29.0701C15.8177 29.0533 15.6753 29.012 15.5634 28.9489L15.5631 28.9487L15.4863 28.9058L15.4859 28.9055L13.0193 27.5119L10.5525 26.1183C10.4012 26.0324 10.3585 25.9412 10.3585 25.8779Z" fill="url(#paint8_linear_1_210)" stroke="url(#paint9_linear_1_210)" stroke-width="0.267261"/>
<path d="M19.7135 36.0424L19.7134 13.9601L26.1277 16.4636L26.1277 39.6813C25.9439 39.6635 25.7719 39.6152 25.6372 39.5395L25.6369 39.5393L25.5496 39.4906L25.5492 39.4904L22.7462 37.9104L19.943 36.3303C19.9429 36.3303 19.9429 36.3303 19.9429 36.3303C19.7678 36.2311 19.7135 36.1228 19.7135 36.0424Z" fill="url(#paint10_linear_1_210)" stroke="url(#paint11_linear_1_210)" stroke-width="0.267261"/>
<path d="M38.8975 25.5284L38.8974 35.0726C38.6277 35.0685 38.3596 35.009 38.1527 34.8925L38.058 34.8395L9.43029 18.6564L6.40254 16.9462C6.18864 16.8248 6.08148 16.6678 6.08148 16.5087L6.08149 8.23325L38.8975 25.5284Z" fill="url(#paint12_linear_1_210)"/>
<path d="M45.0966 21.9215L45.1626 21.8053L45.0966 21.9215C45.2832 22.0274 45.3455 22.1474 45.346 22.2389C45.3465 22.3299 45.2861 22.4494 45.1012 22.5552L39.0457 26.0187L39.112 26.1347L39.0456 26.0187C38.8616 26.124 38.6115 26.1805 38.3536 26.1805C38.0958 26.1805 37.8448 26.124 37.6591 26.0185L34.6117 24.2867L34.6112 24.2864L-0.617003 4.47448C-0.617072 4.47444 -0.617141 4.4744 -0.617211 4.47436C-0.803564 4.36847 -0.865828 4.24855 -0.866366 4.1571C-0.866902 4.06601 -0.806466 3.94659 -0.621557 3.84079C-0.621553 3.84078 -0.621549 3.84078 -0.621545 3.84078L5.43234 0.377658L5.43235 0.377651C5.61639 0.27235 5.86652 0.215845 6.12437 0.215845C6.38217 0.215845 6.63321 0.272334 6.81887 0.377847L6.81939 0.378141L42.0484 20.1899L42.0489 20.1902L45.0966 21.9215Z" fill="url(#paint13_linear_1_210)" stroke="url(#paint14_linear_1_210)" stroke-width="0.267261"/>
<mask id="path-9-inside-1_1_210" fill="white">
<path fill-rule="evenodd" clip-rule="evenodd" d="M69.972 55.4286C77.6671 47.7721 78.6412 31.8534 72.1477 19.8732C65.6542 7.893 54.152 4.38801 46.4568 12.0445C38.7617 19.7011 37.7875 35.6198 44.2811 47.6C50.7746 59.5802 62.2768 63.0851 69.972 55.4286ZM63.1429 42.877C66.3772 39.6443 66.7881 32.9303 64.0606 27.8809C61.3331 22.8315 56.5002 21.3587 53.2659 24.5914C50.0316 27.8242 49.6207 34.5381 52.3482 39.5876C55.0757 44.637 59.9086 46.1097 63.1429 42.877Z"/>
</mask>
<path fill-rule="evenodd" clip-rule="evenodd" d="M69.972 55.4286C77.6671 47.7721 78.6412 31.8534 72.1477 19.8732C65.6542 7.893 54.152 4.38801 46.4568 12.0445C38.7617 19.7011 37.7875 35.6198 44.2811 47.6C50.7746 59.5802 62.2768 63.0851 69.972 55.4286ZM63.1429 42.877C66.3772 39.6443 66.7881 32.9303 64.0606 27.8809C61.3331 22.8315 56.5002 21.3587 53.2659 24.5914C50.0316 27.8242 49.6207 34.5381 52.3482 39.5876C55.0757 44.637 59.9086 46.1097 63.1429 42.877Z" fill="url(#paint15_linear_1_210)"/>
<path d="M64.0606 27.8809L64.2502 27.6928L64.0606 27.8809ZM71.9582 20.0617C78.41 31.9647 77.3972 47.6789 69.8446 55.1936L70.0993 55.6636C77.937 47.8652 78.8725 31.742 72.3372 19.6847L71.9582 20.0617ZM46.5842 12.2795C54.1368 4.76481 65.5065 8.15863 71.9582 20.0617L72.3372 19.6847C65.8018 7.62738 54.1672 4.0112 46.3295 11.8096L46.5842 12.2795ZM44.4705 47.4115C38.0188 35.5084 39.0316 19.7942 46.5842 12.2795L46.3295 11.8096C38.4917 19.608 37.5563 35.7312 44.0916 47.7885L44.4705 47.4115ZM69.8446 55.1936C62.292 62.7083 50.9223 59.3145 44.4705 47.4115L44.0916 47.7885C50.627 59.8458 62.2616 63.462 70.0993 55.6636L69.8446 55.1936ZM63.8709 28.0691C66.5567 33.0413 66.1076 39.5516 63.0151 42.6425L63.2707 43.1116C66.6468 39.7371 67.0194 32.8193 64.2502 27.6928L63.8709 28.0691ZM53.3937 24.826C56.4851 21.736 61.1852 23.0969 63.8709 28.0691L64.2502 27.6928C61.481 22.5661 56.5152 20.9815 53.1381 24.3569L53.3937 24.826ZM52.5378 39.3994C49.852 34.4272 50.3012 27.9169 53.3937 24.826L53.1381 24.3569C49.7619 27.7314 49.3894 34.6491 52.1585 39.7757L52.5378 39.3994ZM63.0151 42.6425C59.9236 45.7325 55.2236 44.3716 52.5378 39.3994L52.1585 39.7757C54.9277 44.9024 59.8936 46.487 63.2707 43.1116L63.0151 42.6425Z" fill="url(#paint16_linear_1_210)" mask="url(#path-9-inside-1_1_210)"/>
<mask id="path-11-inside-2_1_210" fill="white">
<path fill-rule="evenodd" clip-rule="evenodd" d="M64.5981 55.8862C70.6325 48.3365 70.5154 32.7198 64.3365 21.0052C58.1577 9.29063 48.2569 5.91433 42.2225 13.464C36.1882 21.0137 36.3053 36.6305 42.4841 48.345C48.663 60.0596 58.5638 63.4359 64.5981 55.8862ZM58.1525 43.6151C60.6928 40.4369 60.6435 33.8626 58.0424 28.9311C55.4413 23.9996 51.2733 22.5783 48.733 25.7565C46.1927 28.9347 46.242 35.509 48.8431 40.4405C51.4443 45.372 55.6122 46.7933 58.1525 43.6151Z"/>
</mask>
<path fill-rule="evenodd" clip-rule="evenodd" d="M64.5981 55.8862C70.6325 48.3365 70.5154 32.7198 64.3365 21.0052C58.1577 9.29063 48.2569 5.91433 42.2225 13.464C36.1882 21.0137 36.3053 36.6305 42.4841 48.345C48.663 60.0596 58.5638 63.4359 64.5981 55.8862ZM58.1525 43.6151C60.6928 40.4369 60.6435 33.8626 58.0424 28.9311C55.4413 23.9996 51.2733 22.5783 48.733 25.7565C46.1927 28.9347 46.242 35.509 48.8431 40.4405C51.4443 45.372 55.6122 46.7933 58.1525 43.6151Z" fill="url(#paint17_linear_1_210)"/>
<path d="M64.1697 21.214C67.2355 27.0265 68.7922 33.7979 68.839 40.0368C68.8858 46.276 67.4244 51.9579 64.4735 55.6498L64.7228 56.1226C67.8063 52.2648 69.3035 46.3635 69.2556 39.9782C69.2077 33.5927 67.6164 26.6984 64.5034 20.7964L64.1697 21.214ZM42.3472 13.7004C45.2981 10.0085 49.2085 8.96961 53.1641 10.3185C57.1194 11.6673 61.1038 15.4014 64.1697 21.214L64.5034 20.7964C61.3904 14.8944 57.335 11.0831 53.2866 9.70253C49.2385 8.32205 45.1813 9.36985 42.0978 13.2276L42.3472 13.7004ZM42.651 48.1363C39.5852 42.3237 38.0285 35.5523 37.9817 29.3134C37.9349 23.0742 39.3963 17.3923 42.3472 13.7004L42.0978 13.2276C39.0144 17.0854 37.5172 22.9867 37.5651 29.372C37.613 35.7576 39.2043 42.6518 42.3173 48.5538L42.651 48.1363ZM64.4735 55.6498C61.5226 59.3417 57.6122 60.3806 53.6566 59.0317C49.7013 57.6829 45.7168 53.9488 42.651 48.1363L42.3173 48.5538C45.4303 54.4558 49.4857 58.2672 53.534 59.6477C57.5822 61.0282 61.6394 59.9804 64.7228 56.1226L64.4735 55.6498ZM57.8755 29.1399C59.1525 31.5609 59.7978 34.376 59.8172 36.9599C59.8366 39.5441 59.2317 41.8725 58.0278 43.3787L58.2772 43.8515C59.6137 42.1794 60.2543 39.6316 60.2338 36.9013C60.2133 34.1707 59.5334 31.2328 58.2093 28.7224L57.8755 29.1399ZM48.8577 25.9929C50.0616 24.4867 51.6652 24.052 53.3036 24.6107C54.9418 25.1693 56.5986 26.7189 57.8755 29.1399L58.2093 28.7224C56.8851 26.2119 55.1574 24.585 53.4262 23.9947C51.6952 23.4044 49.9448 23.8481 48.6083 25.5201L48.8577 25.9929ZM49.01 40.2317C47.733 37.8107 47.0877 34.9956 47.0683 32.4117C47.0489 29.8275 47.6538 27.4991 48.8577 25.9929L48.6083 25.5201C47.2719 27.1922 46.6313 29.74 46.6517 32.4703C46.6722 35.2009 47.3521 38.1388 48.6763 40.6492L49.01 40.2317ZM58.0278 43.3787C56.824 44.8849 55.2203 45.3196 53.5819 44.7609C51.9438 44.2023 50.287 42.6527 49.01 40.2317L48.6763 40.6492C50.0004 43.1597 51.7282 44.7866 53.4594 45.3769C55.1903 45.9672 56.9408 45.5235 58.2772 43.8515L58.0278 43.3787Z" fill="url(#paint18_linear_1_210)" mask="url(#path-11-inside-2_1_210)"/>
<defs>
<linearGradient id="paint0_linear_1_210" x1="6.21704" y1="17.2383" x2="9.29054" y2="29.6659" gradientUnits="userSpaceOnUse">
<stop stop-color="#9DE3B5"/>
<stop offset="1" stop-color="#094E3D"/>
</linearGradient>
<linearGradient id="paint1_linear_1_210" x1="8.35516" y1="32.0044" x2="1.60483" y2="28.3339" gradientUnits="userSpaceOnUse">
<stop stop-color="white"/>
<stop offset="0.503125" stop-color="white" stop-opacity="0.65"/>
<stop offset="1" stop-color="white" stop-opacity="0"/>
</linearGradient>
<linearGradient id="paint2_linear_1_210" x1="19.6455" y1="24.4535" x2="16.1043" y2="28.8633" gradientUnits="userSpaceOnUse">
<stop stop-color="#9DE3B5"/>
<stop offset="1" stop-color="#094E3D"/>
</linearGradient>
<linearGradient id="paint3_linear_1_210" x1="16.1043" y1="29.2642" x2="18.3092" y2="24.1863" gradientUnits="userSpaceOnUse">
<stop stop-color="white"/>
<stop offset="1" stop-color="white" stop-opacity="0.64"/>
</linearGradient>
<linearGradient id="paint4_linear_1_210" x1="29.0674" y1="21.3137" x2="34.4511" y2="25.036" gradientUnits="userSpaceOnUse">
<stop stop-color="#9DE3B5"/>
<stop offset="1" stop-color="#094E3D"/>
</linearGradient>
<linearGradient id="paint5_linear_1_210" x1="31.1429" y1="37.8719" x2="26.7816" y2="24.7251" gradientUnits="userSpaceOnUse">
<stop stop-color="white"/>
<stop offset="0.857292" stop-color="white" stop-opacity="0.65"/>
<stop offset="0.9999" stop-color="white" stop-opacity="0"/>
<stop offset="1" stop-color="white" stop-opacity="0.65"/>
</linearGradient>
<linearGradient id="paint6_linear_1_210" x1="4.47884" y1="7.95234" x2="-1" y2="28.2641" gradientUnits="userSpaceOnUse">
<stop stop-color="#9DE3B5"/>
<stop offset="1" stop-color="#094E3D"/>
</linearGradient>
<linearGradient id="paint7_linear_1_210" x1="3.34298" y1="19.0436" x2="0.452047" y2="17.4326" gradientUnits="userSpaceOnUse">
<stop stop-color="white"/>
<stop offset="1" stop-color="white" stop-opacity="0"/>
</linearGradient>
<linearGradient id="paint8_linear_1_210" x1="10.2249" y1="19.3087" x2="13.1647" y2="28.0615" gradientUnits="userSpaceOnUse">
<stop stop-color="#9DE3B5"/>
<stop offset="1" stop-color="#094E3D"/>
</linearGradient>
<linearGradient id="paint9_linear_1_210" x1="12.1625" y1="25.9234" x2="14.5011" y2="21.1127" gradientUnits="userSpaceOnUse">
<stop stop-color="white"/>
<stop offset="0.4875" stop-color="white" stop-opacity="0.65"/>
<stop offset="0.903223" stop-color="white" stop-opacity="0"/>
</linearGradient>
<linearGradient id="paint10_linear_1_210" x1="24.8582" y1="27.7957" x2="20.1811" y2="37.8848" gradientUnits="userSpaceOnUse">
<stop stop-color="#9DE3B5"/>
<stop offset="1" stop-color="#094E3D"/>
</linearGradient>
<linearGradient id="paint11_linear_1_210" x1="22.6533" y1="37.8848" x2="24.19" y2="26.593" gradientUnits="userSpaceOnUse">
<stop stop-color="white"/>
<stop offset="0.628125" stop-color="white" stop-opacity="0.65"/>
<stop offset="1" stop-color="white" stop-opacity="0"/>
</linearGradient>
<linearGradient id="paint12_linear_1_210" x1="6.08142" y1="8.28531" x2="28.9105" y2="21.5056" gradientUnits="userSpaceOnUse">
<stop stop-color="#9DE3B5"/>
<stop offset="1" stop-color="#094E3D"/>
</linearGradient>
<linearGradient id="paint13_linear_1_210" x1="2.27391" y1="5.34586" x2="39.6236" y2="20.5129" gradientUnits="userSpaceOnUse">
<stop stop-color="#9DE3B5"/>
<stop offset="1" stop-color="#094E3D"/>
</linearGradient>
<linearGradient id="paint14_linear_1_210" x1="38.4877" y1="23.2523" x2="2.20713" y2="3.07414" gradientUnits="userSpaceOnUse">
<stop stop-color="white"/>
<stop offset="0.7375" stop-color="white" stop-opacity="0.65"/>
<stop offset="0.9999" stop-color="white" stop-opacity="0"/>
<stop offset="1" stop-color="white" stop-opacity="0"/>
</linearGradient>
<linearGradient id="paint15_linear_1_210" x1="64.8157" y1="17.2383" x2="79.0529" y2="51.6742" gradientUnits="userSpaceOnUse">
<stop stop-color="#9DE3B5"/>
<stop offset="1" stop-color="#094E3D"/>
</linearGradient>
<linearGradient id="paint16_linear_1_210" x1="73.9694" y1="44.098" x2="37.8892" y2="19.3096" gradientUnits="userSpaceOnUse">
<stop stop-color="white"/>
<stop offset="1" stop-color="white" stop-opacity="0"/>
</linearGradient>
<linearGradient id="paint17_linear_1_210" x1="63.7432" y1="22.9182" x2="49.6997" y2="48.4839" gradientUnits="userSpaceOnUse">
<stop stop-color="#9DE3B5"/>
<stop offset="1" stop-color="#094E3D"/>
</linearGradient>
<linearGradient id="paint18_linear_1_210" x1="60.8701" y1="58.7979" x2="48.7098" y2="10.4238" gradientUnits="userSpaceOnUse">
<stop stop-color="white"/>
<stop offset="1" stop-color="#F8F8F8" stop-opacity="0"/>
</linearGradient>
</defs>
</svg>
