<svg width="98" height="76" viewBox="0 0 98 76" fill="none" xmlns="http://www.w3.org/2000/svg">
<path d="M17.4674 18.2693V26.6376V35.2464C17.4674 35.4936 17.3043 35.773 16.9023 36.0045L16.8936 36.0096L16.8855 36.0156L11.3712 40.1462L11.1967 40.2445L11.1953 40.2453C10.8496 40.4443 10.4061 40.5606 9.94119 40.5886V21.0426L17.4674 18.2693Z" fill="url(#paint0_linear_1_387)" stroke="url(#paint1_linear_1_387)" stroke-width="0.335469"/>
<path d="M28.3896 18.5268V25.273V32.2599C28.3896 32.4454 28.2674 32.6634 27.9473 32.8479L27.9385 32.853L27.9304 32.859L23.4613 36.2102L23.3216 36.289L23.3203 36.2897C23.0534 36.4435 22.7118 36.536 22.3511 36.562V20.7541L28.3896 18.5268Z" fill="url(#paint2_linear_1_387)" stroke="url(#paint3_linear_1_387)" stroke-width="0.335469"/>
<path d="M41.9766 29.3272V37.0259V44.9655C41.9766 45.1876 41.8309 45.4417 41.4648 45.6536L41.456 45.6587L41.448 45.6648L36.3897 49.4738L36.2303 49.564L36.229 49.5648C35.9177 49.7449 35.5188 49.8514 35.0995 49.8786V31.8746L41.9766 29.3272Z" fill="url(#paint4_linear_1_387)" stroke="url(#paint5_linear_1_387)" stroke-width="0.335469"/>
<path d="M0.88091 35.635L0.88087 5.61664L9.60306 9.02803L9.60311 40.5934C9.34699 40.5703 9.10645 40.5038 8.91838 40.3979L8.91795 40.3976L8.79961 40.3314L8.79902 40.3311L4.99914 38.1847L1.19897 36.0382C0.959376 35.9022 0.88091 35.7513 0.88091 35.635Z" fill="url(#paint6_linear_1_387)" stroke="url(#paint7_linear_1_387)" stroke-width="0.335469"/>
<path d="M14.9704 32.5527L14.9703 8.1332L22.0151 10.8892L22.0152 36.5596C21.8228 36.5385 21.644 36.4866 21.5036 36.4074L21.5032 36.4072L21.4068 36.3533L21.4062 36.353L18.3102 34.6037L15.2138 32.8544C15.0239 32.7466 14.9704 32.6321 14.9704 32.5527Z" fill="url(#paint8_linear_1_387)" stroke="url(#paint9_linear_1_387)" stroke-width="0.335469"/>
<path d="M26.7129 17.5908L26.7129 45.3087C26.7129 45.4097 26.7812 45.5457 27.001 45.6702L30.5196 47.6535L34.038 49.6367L34.0385 49.637L26.7129 17.5908ZM26.7129 17.5908L34.7641 20.7331L26.7129 17.5908ZM34.9319 49.8857V50.0535C34.8757 50.0526 34.8197 50.0497 34.7641 50.0448V49.8763C34.8193 49.8817 34.8754 49.8848 34.9319 49.8857Z" fill="url(#paint10_linear_1_387)" stroke="url(#paint11_linear_1_387)" stroke-width="0.335469"/>
<path d="M50.7961 32.1115L50.7961 44.0915C50.4575 44.0864 50.1209 44.0118 49.8613 43.8655L49.7423 43.7989L13.8085 23.4857L10.008 21.339C9.73954 21.1866 9.60503 20.9895 9.60503 20.7899L9.60504 10.4024L50.7961 32.1115Z" fill="url(#paint12_linear_1_387)"/>
<path d="M58.5742 27.5839L58.6571 27.4381L58.5742 27.5839C58.8084 27.7169 58.8866 27.8675 58.8872 27.9823C58.8879 28.0967 58.8121 28.2465 58.58 28.3793L50.979 32.7268L51.0623 32.8724L50.979 32.7268C50.748 32.859 50.434 32.9299 50.1103 32.9299C49.7867 32.9299 49.4716 32.859 49.2386 32.7266L45.4134 30.5528L45.4127 30.5525L1.19388 5.68423C1.19378 5.68417 1.19368 5.68412 1.19357 5.68406C0.959694 5.55115 0.88155 5.40064 0.880874 5.28586C0.880201 5.17152 0.956062 5.02163 1.18816 4.88882C1.18817 4.88881 1.18817 4.88881 1.18818 4.88881L8.7871 0.54185L8.78711 0.541841C9.01811 0.409666 9.33208 0.33874 9.65573 0.33874C9.97933 0.33874 10.2944 0.409646 10.5275 0.542087L10.5281 0.542456L54.748 25.4104L54.7486 25.4108L58.5742 27.5839Z" fill="url(#paint13_linear_1_387)" stroke="url(#paint14_linear_1_387)" stroke-width="0.335469"/>
<path fill-rule="evenodd" clip-rule="evenodd" d="M89.7973 69.6428C99.4564 60.0322 100.679 40.0508 92.5283 25.0131C84.3776 9.97544 69.9398 5.57592 60.2808 15.1865C50.6217 24.7971 49.399 44.7785 57.5498 59.8162C65.7005 74.8538 80.1383 79.2534 89.7973 69.6428ZM81.2267 53.8879C85.2864 49.8302 85.8022 41.4027 82.3786 35.0646C78.955 28.7265 72.8886 26.8779 68.8289 30.9356C64.7692 34.9933 64.2535 43.4208 67.677 49.7589C71.1006 56.097 77.167 57.9456 81.2267 53.8879Z" fill="url(#paint15_linear_1_387)"/>
<mask id="path-10-inside-1_1_387" fill="white">
<path fill-rule="evenodd" clip-rule="evenodd" d="M83.0533 70.2172C90.6277 60.7407 90.4807 41.1383 82.7249 26.4341C74.9691 11.7298 62.5415 7.49183 54.9671 16.9683C47.3927 26.4448 47.5397 46.0471 55.2955 60.7514C63.0513 75.4557 75.4789 79.6936 83.0533 70.2172ZM74.9653 54.8152C78.1539 50.8258 78.092 42.5738 74.827 36.3837C71.562 30.1936 66.3304 28.4095 63.1417 32.3988C59.9531 36.3882 60.015 44.6402 63.28 50.8303C66.545 57.0204 71.7766 58.8045 74.9653 54.8152Z"/>
</mask>
<path fill-rule="evenodd" clip-rule="evenodd" d="M83.0533 70.2172C90.6277 60.7407 90.4807 41.1383 82.7249 26.4341C74.9691 11.7298 62.5415 7.49183 54.9671 16.9683C47.3927 26.4448 47.5397 46.0471 55.2955 60.7514C63.0513 75.4557 75.4789 79.6936 83.0533 70.2172ZM74.9653 54.8152C78.1539 50.8258 78.092 42.5738 74.827 36.3837C71.562 30.1936 66.3304 28.4095 63.1417 32.3988C59.9531 36.3882 60.015 44.6402 63.28 50.8303C66.545 57.0204 71.7766 58.8045 74.9653 54.8152Z" fill="url(#paint16_linear_1_387)"/>
<path d="M82.5155 26.6961C86.3638 33.9921 88.3178 42.4917 88.3765 50.3228C88.4352 58.1543 86.6008 65.2863 82.8968 69.9205L83.2098 70.5139C87.0802 65.6716 88.9595 58.2641 88.8994 50.2493C88.8393 42.234 86.8419 33.5803 82.9344 26.172L82.5155 26.6961ZM55.1236 17.265C58.8276 12.6309 63.736 11.3268 68.7011 13.02C73.6659 14.7131 78.6672 19.4001 82.5155 26.6961L82.9344 26.172C79.0269 18.7638 73.9365 13.9797 68.8549 12.2468C63.7737 10.514 58.681 11.8292 54.8106 16.6716L55.1236 17.265ZM55.505 60.4893C51.6567 53.1933 49.7027 44.6938 49.6439 36.8627C49.5852 29.0311 51.4196 21.8992 55.1236 17.265L54.8106 16.6716C50.9402 21.5139 49.0609 28.9213 49.121 36.9362C49.1812 44.9514 51.1786 53.6052 55.0861 61.0134L55.505 60.4893ZM82.8968 69.9205C79.1928 74.5546 74.2844 75.8586 69.3193 74.1655C64.3545 72.4724 59.3532 67.7854 55.505 60.4893L55.0861 61.0134C58.9935 68.4217 64.0839 73.2058 69.1655 74.9387C74.2468 76.6714 79.3394 75.3562 83.2098 70.5139L82.8968 69.9205ZM74.6176 36.6457C76.2204 39.6846 77.0305 43.2181 77.0548 46.4615C77.0791 49.7052 76.3199 52.6279 74.8087 54.5184L75.1218 55.1119C76.7993 53.0131 77.6034 49.815 77.5777 46.3879C77.552 42.9604 76.6986 39.2728 75.0365 36.1216L74.6176 36.6457ZM63.2982 32.6955C64.8094 30.805 66.8223 30.2592 68.8788 30.9605C70.9351 31.6618 73.0147 33.6068 74.6176 36.6457L75.0365 36.1216C73.3744 32.9704 71.2057 30.9284 69.0327 30.1874C66.86 29.4464 64.6628 30.0033 62.9852 32.1021L63.2982 32.6955ZM63.4894 50.5683C61.8865 47.5293 61.0765 43.9959 61.0522 40.7525C61.0279 37.5087 61.7871 34.5861 63.2982 32.6955L62.9852 32.1021C61.3077 34.2009 60.5036 37.3989 60.5293 40.8261C60.555 44.2536 61.4084 47.9412 63.0705 51.0924L63.4894 50.5683ZM74.8087 54.5184C73.2976 56.409 71.2847 56.9547 69.2282 56.2534C67.1719 55.5522 65.0923 53.6072 63.4894 50.5683L63.0705 51.0924C64.7326 54.2435 66.9013 56.2856 69.0743 57.0266C71.247 57.7675 73.4442 57.2106 75.1218 55.1119L74.8087 54.5184Z" fill="#9DE3B5" mask="url(#path-10-inside-1_1_387)"/>
<defs>
<linearGradient id="paint0_linear_1_387" x1="9.77342" y1="21.7062" x2="13.6313" y2="37.3055" gradientUnits="userSpaceOnUse">
<stop stop-color="#9DE3B5"/>
<stop offset="1" stop-color="#094E3D"/>
</linearGradient>
<linearGradient id="paint1_linear_1_387" x1="16.4525" y1="38.1091" x2="8.54493" y2="37.2059" gradientUnits="userSpaceOnUse">
<stop stop-color="#9DE3B5"/>
<stop offset="0.0001" stop-color="#9DE3B5"/>
<stop offset="1" stop-color="#9DE3B5" stop-opacity="0.0697988"/>
</linearGradient>
<linearGradient id="paint2_linear_1_387" x1="26.6283" y1="30.7639" x2="22.1833" y2="36.2991" gradientUnits="userSpaceOnUse">
<stop stop-color="#9DE3B5"/>
<stop offset="1" stop-color="#094E3D"/>
</linearGradient>
<linearGradient id="paint3_linear_1_387" x1="27.5985" y1="34.5833" x2="21.1872" y2="33.8518" gradientUnits="userSpaceOnUse">
<stop stop-color="#9DE3B5"/>
<stop offset="0.0001" stop-color="#9DE3B5"/>
<stop offset="1" stop-color="#9DE3B5" stop-opacity="0.0697988"/>
</linearGradient>
<linearGradient id="paint4_linear_1_387" x1="38.4542" y1="26.8218" x2="45.2119" y2="31.494" gradientUnits="userSpaceOnUse">
<stop stop-color="#9DE3B5"/>
<stop offset="1" stop-color="#094E3D"/>
</linearGradient>
<linearGradient id="paint5_linear_1_387" x1="41.0593" y1="47.6057" x2="33.8037" y2="46.7814" gradientUnits="userSpaceOnUse">
<stop stop-color="#9DE3B5"/>
<stop offset="0.0001" stop-color="#9DE3B5"/>
<stop offset="1" stop-color="#9DE3B5" stop-opacity="0.0697988"/>
</linearGradient>
<linearGradient id="paint6_linear_1_387" x1="7.59025" y1="10.049" x2="0.713136" y2="35.5446" gradientUnits="userSpaceOnUse">
<stop stop-color="#9DE3B5"/>
<stop offset="1" stop-color="#094E3D"/>
</linearGradient>
<linearGradient id="paint7_linear_1_387" x1="2.47435" y1="34.5382" x2="-1.1483" y2="31.1562" gradientUnits="userSpaceOnUse">
<stop stop-color="#9DE3B5"/>
<stop offset="1" stop-color="#9DE3B5" stop-opacity="0"/>
</linearGradient>
<linearGradient id="paint8_linear_1_387" x1="14.8026" y1="24.3069" x2="18.4927" y2="35.2935" gradientUnits="userSpaceOnUse">
<stop stop-color="#9DE3B5"/>
<stop offset="1" stop-color="#094E3D"/>
</linearGradient>
<linearGradient id="paint9_linear_1_387" x1="21.0727" y1="33.3704" x2="13.6057" y2="32.7395" gradientUnits="userSpaceOnUse">
<stop stop-color="#9DE3B5"/>
<stop offset="0.0001" stop-color="#9DE3B5"/>
<stop offset="1" stop-color="#9DE3B5" stop-opacity="0.0697988"/>
</linearGradient>
<linearGradient id="paint10_linear_1_387" x1="33.1706" y1="34.9574" x2="27.2999" y2="47.6213" gradientUnits="userSpaceOnUse">
<stop stop-color="#9DE3B5"/>
<stop offset="1" stop-color="#094E3D"/>
</linearGradient>
<linearGradient id="paint11_linear_1_387" x1="33.6702" y1="46.2357" x2="25.1853" y2="45.5172" gradientUnits="userSpaceOnUse">
<stop stop-color="#9DE3B5"/>
<stop offset="0.0001" stop-color="#9DE3B5"/>
<stop offset="1" stop-color="#9DE3B5" stop-opacity="0.0697988"/>
</linearGradient>
<linearGradient id="paint12_linear_1_387" x1="9.60495" y1="10.4678" x2="38.2603" y2="27.0621" gradientUnits="userSpaceOnUse">
<stop stop-color="#9CE3B4"/>
<stop offset="1" stop-color="#094E3D"/>
</linearGradient>
<linearGradient id="paint13_linear_1_387" x1="4.82259" y1="6.77801" x2="51.7044" y2="25.8159" gradientUnits="userSpaceOnUse">
<stop stop-color="#9DE3B5"/>
<stop offset="1" stop-color="#084D3D"/>
</linearGradient>
<linearGradient id="paint14_linear_1_387" x1="50.2786" y1="29.2544" x2="5.99673" y2="3.33945" gradientUnits="userSpaceOnUse">
<stop stop-color="#9DE3B5"/>
<stop offset="0.0001" stop-color="#9DE3B5"/>
<stop offset="1" stop-color="#9DE3B5" stop-opacity="0.0697988"/>
</linearGradient>
<linearGradient id="paint15_linear_1_387" x1="83.3251" y1="21.7058" x2="101.196" y2="64.9302" gradientUnits="userSpaceOnUse">
<stop stop-color="#9DE3B5"/>
<stop offset="1" stop-color="#094E3D"/>
</linearGradient>
<linearGradient id="paint16_linear_1_387" x1="81.9802" y1="28.8353" x2="64.3526" y2="60.9257" gradientUnits="userSpaceOnUse">
<stop stop-color="#9DE3B5"/>
<stop offset="1" stop-color="#094E3D"/>
</linearGradient>
</defs>
</svg>
