<svg width="50" height="39" viewBox="0 0 50 39" fill="none" xmlns="http://www.w3.org/2000/svg">
<path d="M50 4.74904C48.1277 5.54149 46.1417 6.06166 44.1082 6.29224C46.2264 5.07932 47.8527 3.15862 48.6186 0.870123C46.605 2.01173 44.402 2.81607 42.1047 3.24838C40.2334 1.34372 37.5676 0.153381 34.617 0.153381C28.9518 0.153381 24.3586 4.54153 24.3586 9.95376C24.3586 10.722 24.4494 11.4699 24.6242 12.1874C16.0988 11.7786 8.54023 7.87687 3.48066 1.94738C2.59785 3.39486 2.09199 5.07858 2.09199 6.87444C2.09199 10.2747 3.90313 13.2744 6.65547 15.032C5.02646 14.9832 3.4333 14.5629 2.00898 13.806C2.0084 13.847 2.0084 13.8881 2.0084 13.9293C2.0084 18.6778 5.54434 22.639 10.2369 23.5394C8.72634 23.9319 7.14185 23.9893 5.60449 23.7073C6.90977 27.601 10.6982 30.4344 15.1869 30.5137C11.6762 33.1422 7.25293 34.7091 2.44707 34.7091C1.61895 34.7091 0.802539 34.6626 0 34.5721C4.53965 37.3528 9.93164 38.9754 15.7246 38.9754C34.5932 38.9754 44.9109 24.0413 44.9109 11.0904C44.9109 10.6653 44.9012 10.2426 44.8813 9.8224C46.8895 8.43535 48.6229 6.71735 50 4.74904Z" fill="#E571F6"/>
</svg>
