<svg width="78" height="60" viewBox="0 0 78 60" fill="none" xmlns="http://www.w3.org/2000/svg">
<path d="M13.3466 14.5002V21.167V28.0254C13.3466 28.2224 13.2167 28.445 12.8965 28.6295L12.8895 28.6335L12.8831 28.6383L8.48996 31.9291L8.35093 32.0074L8.34985 32.008C8.07439 32.1665 7.72107 32.2592 7.35071 32.2815V16.7096L13.3466 14.5002Z" fill="url(#paint0_linear_1_317)" stroke="url(#paint1_linear_1_317)" stroke-width="0.267261"/>
<path d="M22.0487 14.7046V20.0792V25.6455C22.0487 25.7932 21.9513 25.9669 21.6963 26.1139L21.6893 26.1179L21.6829 26.1227L18.1225 28.7925L18.0112 28.8553L18.0101 28.8559C17.7975 28.9784 17.5253 29.0521 17.238 29.0728V16.479L22.0487 14.7046Z" fill="url(#paint2_linear_1_317)" stroke="url(#paint3_linear_1_317)" stroke-width="0.267261"/>
<path d="M32.8736 23.3097V29.4431V35.7684C32.8736 35.9454 32.7575 36.1478 32.4659 36.3166L32.4589 36.3207L32.4525 36.3255L28.4226 39.3601L28.2957 39.432L28.2946 39.4326C28.0467 39.5761 27.7289 39.6609 27.3948 39.6826V25.3392L32.8736 23.3097Z" fill="url(#paint4_linear_1_317)" stroke="url(#paint5_linear_1_317)" stroke-width="0.267261"/>
<path d="M0.133663 28.3361L0.133631 4.42119L7.0824 7.13896L7.08244 32.2864C6.8784 32.268 6.68676 32.215 6.53693 32.1306L6.53659 32.1304L6.44231 32.0777L6.44184 32.0774L3.41456 30.3674L0.387056 28.6574C0.196175 28.549 0.133663 28.4288 0.133663 28.3361Z" fill="url(#paint6_linear_1_317)" stroke="url(#paint7_linear_1_317)" stroke-width="0.267261"/>
<path d="M11.3585 25.8779L11.3585 6.42346L16.971 8.61909L16.971 29.0701C16.8177 29.0533 16.6753 29.012 16.5634 28.9489L16.5631 28.9487L16.4863 28.9058L16.4859 28.9055L14.0193 27.5119L11.5525 26.1183C11.4012 26.0324 11.3585 25.9412 11.3585 25.8779Z" fill="url(#paint8_linear_1_317)" stroke="url(#paint9_linear_1_317)" stroke-width="0.267261"/>
<path d="M20.7135 36.0424L20.7134 13.9601L27.1277 16.4636L27.1277 39.6813C26.9439 39.6635 26.7719 39.6152 26.6372 39.5395L26.6369 39.5393L26.5496 39.4906L26.5492 39.4903L23.7462 37.9104L20.943 36.3303C20.9429 36.3303 20.9429 36.3303 20.9429 36.3302C20.7678 36.2311 20.7135 36.1228 20.7135 36.0424Z" fill="url(#paint10_linear_1_317)" stroke="url(#paint11_linear_1_317)" stroke-width="0.267261"/>
<path d="M39.8974 25.5284L39.8974 35.0726C39.6277 35.0685 39.3596 35.009 39.1527 34.8925L39.058 34.8395L10.4303 18.6564L7.40254 16.9462C7.18863 16.8248 7.08147 16.6678 7.08147 16.5087L7.08148 8.23325L39.8974 25.5284Z" fill="url(#paint12_linear_1_317)"/>
<path d="M46.0966 21.9215L46.1626 21.8053L46.0966 21.9215C46.2832 22.0274 46.3455 22.1474 46.346 22.2389C46.3465 22.3299 46.2861 22.4494 46.1012 22.5552L40.0457 26.0187L40.112 26.1347L40.0456 26.0187C39.8616 26.124 39.6115 26.1805 39.3536 26.1805C39.0958 26.1805 38.8448 26.124 38.6591 26.0185L35.6117 24.2867L35.6112 24.2864L0.382997 4.47448C0.382928 4.47444 0.382859 4.4744 0.382789 4.47436C0.196436 4.36847 0.134172 4.24855 0.133634 4.1571C0.133098 4.06601 0.193534 3.94659 0.378443 3.84079C0.378447 3.84078 0.378451 3.84078 0.378455 3.84078L6.43234 0.377658L6.43235 0.377651C6.61639 0.27235 6.86652 0.215845 7.12437 0.215845C7.38217 0.215845 7.63321 0.272334 7.81887 0.377847L7.81939 0.378141L43.0484 20.1899L43.0489 20.1902L46.0966 21.9215Z" fill="url(#paint13_linear_1_317)" stroke="url(#paint14_linear_1_317)" stroke-width="0.267261"/>
<mask id="path-9-inside-1_1_317" fill="white">
<path fill-rule="evenodd" clip-rule="evenodd" d="M70.972 55.4286C78.6672 47.7721 79.6413 31.8534 73.1477 19.8732C66.6542 7.89302 55.152 4.38802 47.4568 12.0446C39.7617 19.7011 38.7876 35.6198 45.2811 47.6C51.7746 59.5802 63.2768 63.0852 70.972 55.4286ZM64.1429 42.877C67.3772 39.6443 67.7881 32.9303 65.0606 27.8809C62.3331 22.8315 57.5002 21.3588 54.2659 24.5915C51.0316 27.8242 50.6207 34.5382 53.3482 39.5876C56.0757 44.637 60.9086 46.1098 64.1429 42.877Z"/>
</mask>
<path fill-rule="evenodd" clip-rule="evenodd" d="M70.972 55.4286C78.6672 47.7721 79.6413 31.8534 73.1477 19.8732C66.6542 7.89302 55.152 4.38802 47.4568 12.0446C39.7617 19.7011 38.7876 35.6198 45.2811 47.6C51.7746 59.5802 63.2768 63.0852 70.972 55.4286ZM64.1429 42.877C67.3772 39.6443 67.7881 32.9303 65.0606 27.8809C62.3331 22.8315 57.5002 21.3588 54.2659 24.5915C51.0316 27.8242 50.6207 34.5382 53.3482 39.5876C56.0757 44.637 60.9086 46.1098 64.1429 42.877Z" fill="url(#paint15_linear_1_317)"/>
<path d="M65.0606 27.8809L65.2503 27.6928L65.0606 27.8809ZM72.9583 20.0617C79.41 31.9648 78.3972 47.6789 70.8446 55.1937L71.0994 55.6636C78.9371 47.8652 79.8725 31.742 73.3372 19.6847L72.9583 20.0617ZM47.5842 12.2795C55.1368 4.76482 66.5065 8.15864 72.9583 20.0617L73.3372 19.6847C66.8019 7.62739 55.1672 4.01122 47.3295 11.8096L47.5842 12.2795ZM45.4706 47.4115C39.0188 35.5084 40.0316 19.7942 47.5842 12.2795L47.3295 11.8096C39.4918 19.608 38.5563 35.7312 45.0917 47.7885L45.4706 47.4115ZM70.8446 55.1937C63.292 62.7084 51.9223 59.3145 45.4706 47.4115L45.0917 47.7885C51.627 59.8458 63.2616 63.462 71.0994 55.6636L70.8446 55.1937ZM64.871 28.0691C67.5568 33.0413 67.1076 39.5516 64.0151 42.6425L64.2707 43.1116C67.6469 39.7371 68.0194 32.8194 65.2503 27.6928L64.871 28.0691ZM54.3937 24.826C57.4852 21.736 62.1852 23.0969 64.871 28.0691L65.2503 27.6928C62.4811 22.5661 57.5152 20.9815 54.1381 24.3569L54.3937 24.826ZM53.5379 39.3994C50.8521 34.4272 51.3012 27.9169 54.3937 24.826L54.1381 24.3569C50.762 27.7314 50.3894 34.6492 53.1586 39.7757L53.5379 39.3994ZM64.0151 42.6425C60.9237 45.7325 56.2236 44.3716 53.5379 39.3994L53.1586 39.7757C55.9278 44.9024 60.8936 46.487 64.2707 43.1116L64.0151 42.6425Z" fill="url(#paint16_linear_1_317)" mask="url(#path-9-inside-1_1_317)"/>
<mask id="path-11-inside-2_1_317" fill="white">
<path fill-rule="evenodd" clip-rule="evenodd" d="M65.5981 55.8862C71.6325 48.3365 71.5154 32.7198 65.3365 21.0052C59.1577 9.29063 49.2569 5.91433 43.2225 13.464C37.1881 21.0137 37.3053 36.6305 43.4841 48.345C49.663 60.0596 59.5638 63.4359 65.5981 55.8862ZM59.1525 43.6151C61.6928 40.4369 61.6435 33.8626 59.0424 28.9311C56.4413 23.9996 52.2733 22.5783 49.733 25.7565C47.1927 28.9347 47.242 35.509 49.8431 40.4405C52.4443 45.372 56.6122 46.7933 59.1525 43.6151Z"/>
</mask>
<path fill-rule="evenodd" clip-rule="evenodd" d="M65.5981 55.8862C71.6325 48.3365 71.5154 32.7198 65.3365 21.0052C59.1577 9.29063 49.2569 5.91433 43.2225 13.464C37.1881 21.0137 37.3053 36.6305 43.4841 48.345C49.663 60.0596 59.5638 63.4359 65.5981 55.8862ZM59.1525 43.6151C61.6928 40.4369 61.6435 33.8626 59.0424 28.9311C56.4413 23.9996 52.2733 22.5783 49.733 25.7565C47.1927 28.9347 47.242 35.509 49.8431 40.4405C52.4443 45.372 56.6122 46.7933 59.1525 43.6151Z" fill="url(#paint17_linear_1_317)"/>
<path d="M65.1697 21.214C68.2355 27.0265 69.7922 33.7979 69.839 40.0368C69.8858 46.276 68.4244 51.9579 65.4735 55.6498L65.7228 56.1226C68.8063 52.2648 70.3035 46.3635 70.2556 39.9782C70.2077 33.5927 68.6164 26.6984 65.5034 20.7964L65.1697 21.214ZM43.3472 13.7004C46.2981 10.0085 50.2085 8.96961 54.1641 10.3185C58.1194 11.6673 62.1038 15.4014 65.1697 21.214L65.5034 20.7964C62.3904 14.8944 58.335 11.0831 54.2866 9.70253C50.2385 8.32205 46.1813 9.36985 43.0978 13.2276L43.3472 13.7004ZM43.651 48.1363C40.5852 42.3237 39.0284 35.5523 38.9817 29.3134C38.9349 23.0742 40.3963 17.3923 43.3472 13.7004L43.0978 13.2276C40.0144 17.0854 38.5172 22.9867 38.5651 29.372C38.613 35.7576 40.2042 42.6518 43.3173 48.5538L43.651 48.1363ZM65.4735 55.6498C62.5226 59.3417 58.6122 60.3806 54.6566 59.0317C50.7013 57.6829 46.7168 53.9488 43.651 48.1363L43.3173 48.5538C46.4303 54.4558 50.4857 58.2672 54.534 59.6477C58.5822 61.0282 62.6394 59.9804 65.7228 56.1226L65.4735 55.6498ZM58.8755 29.1399C60.1525 31.5609 60.7978 34.376 60.8172 36.9599C60.8366 39.5441 60.2317 41.8725 59.0278 43.3787L59.2772 43.8515C60.6137 42.1794 61.2543 39.6316 61.2338 36.9013C61.2133 34.1707 60.5334 31.2328 59.2093 28.7224L58.8755 29.1399ZM49.8577 25.9929C51.0616 24.4867 52.6652 24.052 54.3036 24.6107C55.9418 25.1693 57.5986 26.7189 58.8755 29.1399L59.2093 28.7224C57.8851 26.2119 56.1573 24.585 54.4262 23.9947C52.6952 23.4044 50.9448 23.8481 49.6083 25.5201L49.8577 25.9929ZM50.01 40.2317C48.733 37.8107 48.0877 34.9956 48.0683 32.4117C48.0489 29.8275 48.6538 27.4991 49.8577 25.9929L49.6083 25.5201C48.2719 27.1922 47.6313 29.74 47.6517 32.4703C47.6722 35.2009 48.3521 38.1388 49.6763 40.6492L50.01 40.2317ZM59.0278 43.3787C57.824 44.8849 56.2203 45.3196 54.5819 44.7609C52.9438 44.2023 51.287 42.6527 50.01 40.2317L49.6763 40.6492C51.0004 43.1597 52.7282 44.7866 54.4593 45.3769C56.1903 45.9672 57.9408 45.5235 59.2772 43.8515L59.0278 43.3787Z" fill="url(#paint18_linear_1_317)" mask="url(#path-11-inside-2_1_317)"/>
<defs>
<linearGradient id="paint0_linear_1_317" x1="7.21705" y1="17.2383" x2="10.2905" y2="29.6659" gradientUnits="userSpaceOnUse">
<stop stop-color="#B8B8B8"/>
<stop offset="1" stop-color="#828282"/>
</linearGradient>
<linearGradient id="paint1_linear_1_317" x1="9.35516" y1="32.0044" x2="2.60484" y2="28.3339" gradientUnits="userSpaceOnUse">
<stop stop-color="white"/>
<stop offset="0.503125" stop-color="white" stop-opacity="0.65"/>
<stop offset="1" stop-color="white" stop-opacity="0"/>
</linearGradient>
<linearGradient id="paint2_linear_1_317" x1="20.6455" y1="24.4536" x2="17.1043" y2="28.8634" gradientUnits="userSpaceOnUse">
<stop stop-color="#B8B8B8"/>
<stop offset="1" stop-color="#828282"/>
</linearGradient>
<linearGradient id="paint3_linear_1_317" x1="17.1044" y1="29.2642" x2="19.3093" y2="24.1863" gradientUnits="userSpaceOnUse">
<stop stop-color="white"/>
<stop offset="1" stop-color="white" stop-opacity="0.64"/>
</linearGradient>
<linearGradient id="paint4_linear_1_317" x1="30.0674" y1="21.3137" x2="35.4511" y2="25.036" gradientUnits="userSpaceOnUse">
<stop stop-color="#B8B8B8"/>
<stop offset="1" stop-color="#828282"/>
</linearGradient>
<linearGradient id="paint5_linear_1_317" x1="32.1429" y1="37.8718" x2="27.7815" y2="24.7251" gradientUnits="userSpaceOnUse">
<stop stop-color="white"/>
<stop offset="0.857292" stop-color="white" stop-opacity="0.65"/>
<stop offset="0.9999" stop-color="white" stop-opacity="0"/>
<stop offset="1" stop-color="white" stop-opacity="0.65"/>
</linearGradient>
<linearGradient id="paint6_linear_1_317" x1="5.47884" y1="7.95234" x2="2.95782e-07" y2="28.2641" gradientUnits="userSpaceOnUse">
<stop stop-color="#B8B8B8"/>
<stop offset="1" stop-color="#828282"/>
</linearGradient>
<linearGradient id="paint7_linear_1_317" x1="4.34298" y1="19.0436" x2="1.45205" y2="17.4326" gradientUnits="userSpaceOnUse">
<stop stop-color="white"/>
<stop offset="1" stop-color="white" stop-opacity="0"/>
</linearGradient>
<linearGradient id="paint8_linear_1_317" x1="11.2249" y1="19.3087" x2="14.1647" y2="28.0615" gradientUnits="userSpaceOnUse">
<stop stop-color="#B8B8B8"/>
<stop offset="1" stop-color="#828282"/>
</linearGradient>
<linearGradient id="paint9_linear_1_317" x1="13.1625" y1="25.9234" x2="15.5011" y2="21.1127" gradientUnits="userSpaceOnUse">
<stop stop-color="white"/>
<stop offset="0.4875" stop-color="white" stop-opacity="0.65"/>
<stop offset="0.903223" stop-color="white" stop-opacity="0"/>
</linearGradient>
<linearGradient id="paint10_linear_1_317" x1="25.8582" y1="27.7957" x2="21.1811" y2="37.8848" gradientUnits="userSpaceOnUse">
<stop stop-color="#B8B8B8"/>
<stop offset="1" stop-color="#828282"/>
</linearGradient>
<linearGradient id="paint11_linear_1_317" x1="23.6533" y1="37.8848" x2="25.19" y2="26.593" gradientUnits="userSpaceOnUse">
<stop stop-color="white"/>
<stop offset="0.628125" stop-color="white" stop-opacity="0.65"/>
<stop offset="1" stop-color="white" stop-opacity="0"/>
</linearGradient>
<linearGradient id="paint12_linear_1_317" x1="7.08141" y1="8.28531" x2="29.9105" y2="21.5056" gradientUnits="userSpaceOnUse">
<stop stop-color="#B8B8B8"/>
<stop offset="1" stop-color="#828282"/>
</linearGradient>
<linearGradient id="paint13_linear_1_317" x1="3.27391" y1="5.34586" x2="40.6236" y2="20.5129" gradientUnits="userSpaceOnUse">
<stop stop-color="#B8B8B8"/>
<stop offset="1" stop-color="#828282"/>
</linearGradient>
<linearGradient id="paint14_linear_1_317" x1="39.4877" y1="23.2523" x2="3.20713" y2="3.07414" gradientUnits="userSpaceOnUse">
<stop stop-color="white"/>
<stop offset="0.7375" stop-color="white" stop-opacity="0.65"/>
<stop offset="0.9999" stop-color="white" stop-opacity="0"/>
<stop offset="1" stop-color="white" stop-opacity="0"/>
</linearGradient>
<linearGradient id="paint15_linear_1_317" x1="72.3077" y1="21.8193" x2="58.3761" y2="50.033" gradientUnits="userSpaceOnUse">
<stop stop-color="#828282"/>
<stop offset="1" stop-color="#CACACA"/>
</linearGradient>
<linearGradient id="paint16_linear_1_317" x1="66.3428" y1="58.3726" x2="56.066" y2="8.84245" gradientUnits="userSpaceOnUse">
<stop stop-color="white"/>
<stop offset="1" stop-color="#F8F8F8" stop-opacity="0"/>
</linearGradient>
<linearGradient id="paint17_linear_1_317" x1="64.7432" y1="22.9182" x2="50.6997" y2="48.4839" gradientUnits="userSpaceOnUse">
<stop stop-color="#828282"/>
<stop offset="1" stop-color="#CACACA"/>
</linearGradient>
<linearGradient id="paint18_linear_1_317" x1="61.8701" y1="58.7979" x2="49.7098" y2="10.4238" gradientUnits="userSpaceOnUse">
<stop stop-color="white"/>
<stop offset="1" stop-color="#F8F8F8" stop-opacity="0"/>
</linearGradient>
</defs>
</svg>
