<svg width="49" height="50" viewBox="0 0 49 50" fill="none" xmlns="http://www.w3.org/2000/svg">
<path d="M24.5109 12.4218C17.5547 12.4218 11.9438 18.0328 11.9438 24.989C11.9438 31.9453 17.5547 37.5562 24.5109 37.5562C31.4672 37.5562 37.0781 31.9453 37.0781 24.989C37.0781 18.0328 31.4672 12.4218 24.5109 12.4218ZM24.5109 33.1593C20.0156 33.1593 16.3406 29.4953 16.3406 24.989C16.3406 20.4828 20.0047 16.8187 24.5109 16.8187C29.0172 16.8187 32.6812 20.4828 32.6812 24.989C32.6812 29.4953 29.0062 33.1593 24.5109 33.1593ZM40.5234 11.9078C40.5234 13.5375 39.2109 14.839 37.5922 14.839C35.9625 14.839 34.6609 13.5265 34.6609 11.9078C34.6609 10.289 35.9734 8.97654 37.5922 8.97654C39.2109 8.97654 40.5234 10.289 40.5234 11.9078ZM48.8469 14.8828C48.6609 10.9562 47.764 7.4781 44.8875 4.61247C42.0219 1.74685 38.5437 0.849976 34.6172 0.653101C30.5703 0.423413 18.4406 0.423413 14.3937 0.653101C10.4781 0.839038 7 1.73591 4.12344 4.60154C1.24688 7.46716 0.360946 10.9453 0.164072 14.8718C-0.0656158 18.9187 -0.0656158 31.0484 0.164072 35.0953C0.350009 39.0218 1.24688 42.5 4.12344 45.3656C7 48.2312 10.4672 49.1281 14.3937 49.325C18.4406 49.5547 30.5703 49.5547 34.6172 49.325C38.5437 49.139 42.0219 48.2422 44.8875 45.3656C47.7531 42.5 48.65 39.0218 48.8469 35.0953C49.0765 31.0484 49.0765 18.9297 48.8469 14.8828ZM43.6187 39.4375C42.7656 41.5812 41.114 43.2328 38.9594 44.0968C35.7328 45.3765 28.0766 45.0812 24.5109 45.0812C20.9453 45.0812 13.2781 45.3656 10.0625 44.0968C7.91875 43.2437 6.26719 41.5922 5.40313 39.4375C4.12344 36.2109 4.41876 28.5547 4.41876 24.989C4.41876 21.4234 4.13438 13.7562 5.40313 10.5406C6.25626 8.39685 7.90782 6.74529 10.0625 5.88122C13.2891 4.60154 20.9453 4.89685 24.5109 4.89685C28.0766 4.89685 35.7437 4.61247 38.9594 5.88122C41.1031 6.73435 42.7547 8.38591 43.6187 10.5406C44.8984 13.7672 44.6031 21.4234 44.6031 24.989C44.6031 28.5547 44.8984 36.2218 43.6187 39.4375Z" fill="#E571F6"/>
</svg>
