<svg width="48" height="50" viewBox="0 0 48 50" fill="none" xmlns="http://www.w3.org/2000/svg">
<path d="M24 0.78125C10.7419 0.78125 0 11.6211 0 25C0 38.3789 10.7419 49.2188 24 49.2188C37.2581 49.2188 48 38.3789 48 25C48 11.6211 37.2581 0.78125 24 0.78125ZM35.7871 17.373L31.8484 36.1035C31.5581 37.4316 30.7742 37.7539 29.6806 37.1289L23.6806 32.666L20.7871 35.4785C20.4677 35.8008 20.1968 36.0742 19.5774 36.0742L20.0032 29.9121L31.1226 19.7754C31.6065 19.3457 31.0161 19.1016 30.3774 19.5312L16.6355 28.2617L10.7129 26.3965C9.42581 25.9863 9.39677 25.0977 10.9839 24.4727L34.1226 15.4687C35.1968 15.0781 36.1355 15.7324 35.7871 17.373Z" fill="#E571F6"/>
</svg>
